<svg width="126" height="48" viewBox="0 0 126 48" fill="none" xmlns="http://www.w3.org/2000/svg">
<path opacity="0.848" fill-rule="evenodd" clip-rule="evenodd" d="M110.848 0C111.596 0 112.344 0 113.092 0C119.336 4.64364 123.638 10.6297 126 17.9582C126 21.3254 126 24.6926 126 28.0597C118.284 23.7626 110.334 23.2014 102.149 26.3762C103.212 32.9652 106.486 38.203 111.97 42.0896C115.366 39.7958 117.985 36.8027 119.827 33.1105C118.843 31.8759 117.534 31.2212 115.898 31.1463C112.69 30.8565 109.509 30.8565 106.358 31.1463C105.304 30.028 105.117 28.812 105.797 27.4985C112.847 25.8924 119.395 27.0148 125.439 30.8657C123.014 37.5905 118.899 43.0154 113.092 47.1404C112.344 47.1404 111.596 47.1404 110.848 47.1404C105.246 43.1273 101.224 37.8895 98.782 31.4269C97.8813 28.7088 97.7881 25.9963 98.5014 23.2896C105.994 19.8414 113.664 19.3738 121.51 21.8866C121.258 14.6907 118.078 9.07873 111.97 5.05075C108.574 7.34458 105.955 10.3377 104.113 14.0299C108.358 13.9084 112.661 14.0954 117.021 14.5911C117.582 15.7135 118.143 16.8358 118.704 17.9582C115.016 17.9664 111.275 18.0599 107.481 18.2388C104.377 18.6808 101.384 19.5226 98.5014 20.7642C98.4514 15.7733 100.042 11.2838 103.272 7.29553C105.738 4.73406 108.263 2.30222 110.848 0Z" fill="white"/>
<path opacity="0.863" fill-rule="evenodd" clip-rule="evenodd" d="M80.0895 13.4688C81.3987 13.4688 82.7086 13.4688 84.0178 13.4688C84.244 19.4909 83.9634 25.477 83.176 31.427C82.4947 32.2962 81.6529 32.9509 80.6507 33.3912C77.5523 33.7573 74.4657 33.6638 71.3909 33.1106C66.9996 34.2576 62.6032 34.3511 58.2029 33.3912C57.2006 32.9509 56.3588 32.2962 55.6775 31.427C55.0792 28.4503 55.453 25.6444 56.7999 23.0091C59.08 23.305 59.7349 24.4274 58.7641 26.3762C58.7023 27.4279 59.0761 28.2697 59.8864 28.9016C62.4382 29.7688 65.0567 29.9558 67.7432 29.4628C67.1494 26.1562 68.2718 23.5373 71.1103 21.6061C74.0667 20.7924 76.0309 21.8213 77.0029 24.6926C77.2442 26.2035 77.1505 27.7 76.7223 29.1822C78.0085 29.3261 79.2247 29.139 80.3701 28.621C80.6175 23.5657 80.5238 18.5149 80.0895 13.4688ZM71.1103 25.2538C74.3641 25.9412 74.6447 27.2506 71.9521 29.1822C70.3684 28.1837 70.0878 26.8742 71.1103 25.2538Z" fill="white"/>
<path opacity="0.917" fill-rule="evenodd" clip-rule="evenodd" d="M86.8237 13.4688C87.9461 13.4688 89.0685 13.4688 90.1909 13.4688C90.1909 20.2031 90.1909 26.9374 90.1909 33.6718C89.2554 33.6718 88.3204 33.6718 87.3849 33.6718C87.0112 26.9439 86.8243 20.2096 86.8237 13.4688Z" fill="white"/>
<path opacity="0.763" fill-rule="evenodd" clip-rule="evenodd" d="M70.5491 15.7134C71.8583 15.7134 73.1682 15.7134 74.4774 15.7134C74.4774 17.0228 74.4774 18.3323 74.4774 19.6417C73.1682 19.6417 71.8583 19.6417 70.5491 19.6417C70.5491 18.3323 70.5491 17.0228 70.5491 15.7134Z" fill="white"/>
<path opacity="0.858" fill-rule="evenodd" clip-rule="evenodd" d="M36.8773 21.3253C38.3853 21.2332 39.882 21.3267 41.3669 21.6059C44.3031 22.8028 47.2965 23.8317 50.346 24.6924C50.8303 25.9671 50.8303 27.2765 50.346 28.6208C49.3926 28.5309 48.457 28.6245 47.54 28.9014C42.6414 32.3432 37.2163 33.8397 31.2654 33.391C30.4624 33.1299 29.8077 32.6622 29.3012 31.988C26.215 33.9619 23.0349 34.149 19.7609 32.5492C17.2581 34.6019 14.8263 34.4149 12.4654 31.988C9.14557 35.2487 5.12371 36.9323 0.399683 37.0387C-0.133228 35.5976 -0.133228 34.1947 0.399683 32.8298C6.23224 33.0532 10.2542 30.5279 12.4654 25.2536C14.2042 22.7474 16.5426 21.9056 19.4803 22.7283C20.2486 24.8757 21.184 26.9335 22.2863 28.9014C26.3909 30.3064 28.2615 28.9034 27.8982 24.6924C28.8873 24.7725 29.8226 24.5855 30.7042 24.1313C30.9837 25.8668 31.5449 27.4568 32.3878 28.9014C36.2087 29.5687 39.763 28.9139 43.0505 26.9372C41.5218 25.7925 39.8382 25.3249 37.9997 25.5342C37.2113 27.1788 36.1825 27.2723 34.9132 25.8148C35.1264 24.1756 35.7811 22.6791 36.8773 21.3253ZM15.5519 26.376C17.7377 26.5765 18.2989 27.6989 17.2355 29.7432C16.2071 29.3231 15.2719 28.762 14.4296 28.0596C14.8182 27.4884 15.1923 26.9272 15.5519 26.376Z" fill="white"/>
<path opacity="0.734" fill-rule="evenodd" clip-rule="evenodd" d="M37.4385 35.3555C38.7477 35.3555 40.0576 35.3555 41.3668 35.3555C41.3668 36.6649 41.3668 37.9744 41.3668 39.2838C40.0576 39.2838 38.7477 39.2838 37.4385 39.2838C37.4385 37.9744 37.4385 36.6649 37.4385 35.3555Z" fill="white"/>
<path opacity="0.965" fill-rule="evenodd" clip-rule="evenodd" d="M21.1638 35.9165C23.7827 35.9165 26.4016 35.9165 29.0205 35.9165C29.0205 36.8518 29.0205 37.7871 29.0205 38.7225C26.4016 38.7225 23.7827 38.7225 21.1638 38.7225C21.1638 37.7871 21.1638 36.8518 21.1638 35.9165Z" fill="white"/>
</svg>
